<svg xmlns="http://www.w3.org/2000/svg" width="512" height="512"><path d="M501.968 246.166h-.005c-5.52 0-9.996 4.473-9.999 9.994-.032 62.982-24.576 122.195-69.113 166.731-44.568 44.568-103.824 69.113-166.853 69.113S133.715 467.458 89.146 422.89c-44.568-44.567-69.113-103.825-69.113-166.853 0-63.029 24.544-122.285 69.113-166.853C160.668 17.661 269.64-.374 360.308 44.304c4.95 2.44 10.947.403 13.388-4.549 2.441-4.953.404-10.947-4.549-13.388-98.354-48.465-216.559-28.902-294.14 48.677C26.662 123.389.037 187.666.037 256.037c0 68.37 26.625 132.648 74.969 180.994C123.352 485.376 187.63 512 256 512s132.648-26.625 180.993-74.969c48.309-48.31 74.934-112.542 74.969-180.861.002-5.523-4.471-10.001-9.994-10.004z" fill="#2d313a" data-original="#000000" xmlns="http://www.w3.org/2000/svg"/><path d="M403.512 46.808l-.261-.183c-4.522-3.167-10.758-2.067-13.925 2.458-3.165 4.523-2.064 10.757 2.46 13.924l.233.165a9.954 9.954 0 005.738 1.818 9.999 9.999 0 005.755-18.182zm48.283 199.158c-5.521 0-9.999 4.476-9.999 9.999l-.001.612c-.025 5.521 4.431 10.018 9.954 10.042l.046.001c5.501 0 9.974-4.447 9.998-9.955l.001-.701c0-5.522-4.477-9.998-9.999-9.998zm-2.144 40.779c-5.401-1.141-10.705 2.321-11.843 7.725-17.984 85.448-94.52 147.468-181.983 147.468-102.546 0-185.973-83.427-185.973-185.973 0-66.412 34.994-126.743 90.972-159.937-.65 4.197 1.442 8.509 5.452 10.49a9.963 9.963 0 004.422 1.038c3.684 0 7.228-2.045 8.972-5.571l11.076-22.414c2.447-4.95.417-10.946-4.533-13.393l-22.415-11.077c-4.952-2.447-10.946-.416-13.394 4.534-2.447 4.95-.417 10.946 4.533 13.393l3.168 1.565c-66.356 35.699-108.25 104.896-108.25 181.37 0 113.572 92.397 205.97 205.97 205.97 47.535 0 93.914-16.58 130.593-46.685 36.175-29.692 61.375-71.123 70.959-116.661 1.136-5.402-2.322-10.705-7.726-11.842z" fill="#2d313a" data-original="#000000" xmlns="http://www.w3.org/2000/svg"/><path d="M255.999 224.042c-14.15 0-26.177 9.238-30.387 21.997h-82.597c-5.521 0-9.999 4.476-9.999 9.999 0 5.521 4.477 9.999 9.999 9.999h82.597c3.171 9.611 10.777 17.217 20.388 20.388v109.164c0 5.521 4.477 9.999 9.998 9.999 5.521 0 9.999-4.477 9.999-9.999V286.424c12.759-4.209 21.997-16.237 21.997-30.387 0-17.642-14.353-31.995-31.995-31.995zm0 43.994c-6.616 0-11.998-5.382-11.998-11.998s5.382-11.998 11.998-11.998 11.998 5.382 11.998 11.998-5.382 11.998-11.998 11.998zm46.002-81.174h-19.487C296.408 172.914 312 152.742 312 132.446c0-19.79-13.297-33.087-33.087-33.087-18.244 0-33.087 14.843-33.087 33.087 0 5.522 4.477 9.999 9.999 9.999 5.521 0 9.999-4.476 9.999-9.999 0-7.218 5.872-13.09 13.09-13.09 13.09 0 13.09 9.853 13.09 13.09-.001 20.765-30.396 47.726-42.102 56.359a10 10 0 005.924 18.054h46.177c5.521 0 9.999-4.476 9.999-9.999-.002-5.522-4.48-9.998-10.001-9.998zm103.833-43.715h-1.554v-33.791c0-5.522-4.477-9.999-9.999-9.999s-9.999 4.476-9.999 9.999v33.791H357.33v-33.791c0-5.522-4.477-9.999-9.999-9.999-5.521 0-9.999 4.476-9.999 9.999v43.79c0 5.522 4.477 9.999 9.999 9.999h36.951v33.888c0 5.522 4.477 9.999 9.999 9.999s9.999-4.476 9.999-9.999v-33.888h1.554c5.521 0 9.999-4.476 9.999-9.999 0-5.523-4.478-9.999-9.999-9.999zm70.544.253c-4.143 0-8.1.807-11.731 2.258v-36.302c0-5.522-4.477-9.999-9.999-9.999s-9.999 4.476-9.999 9.999v87.503c0 5.522 4.477 9.999 9.999 9.999s9.999-4.476 9.999-9.999v-21.731c0-6.469 5.263-11.731 11.731-11.731 6.47 0 11.732 5.263 11.732 11.731v21.731c0 5.522 4.477 9.999 9.999 9.999s9.999-4.476 9.999-9.999v-21.731c-.001-17.495-14.235-31.728-31.73-31.728z" fill="#2d313a" data-original="#000000" xmlns="http://www.w3.org/2000/svg"/></svg>