<svg xmlns="http://www.w3.org/2000/svg" width="512" height="512"><g xmlns="http://www.w3.org/2000/svg" fill="#2d313a"><path d="M488.505 78.371L399.403 41.25c-9.774-4.071-20.984-4.07-30.757.001l-42.78 17.819a7.5 7.5 0 005.768 13.848l42.78-17.82c6.105-2.544 13.112-2.545 19.222-.001l89.097 37.119C491.399 95.831 497 103.96 497 112.923v320.75c0 12.473-10.713 22.62-23.88 22.62h-12.16c-4.143 0-7.5 3.357-7.5 7.5s3.357 7.5 7.5 7.5h12.16c21.438 0 38.88-16.876 38.88-37.62v-320.75c0-15.036-9.222-28.598-23.495-34.552zM428.27 456.294H302.25c5.189-5.898 8.03-13.381 8.03-21.3 0-7.903-2.861-15.146-7.595-20.762a32.396 32.396 0 008.189-5.955c6.092-6.093 9.446-14.194 9.446-22.813 0-8.216-3.092-15.72-8.167-21.422a32.319 32.319 0 006.949-5.285c6.092-6.091 9.447-14.192 9.447-22.813 0-8.192-3.073-15.677-8.119-21.374a32.558 32.558 0 007.069-5.349c6.088-6.102 9.44-14.201 9.44-22.808 0-17.794-14.472-32.27-32.261-32.27h-33.63v-141.22c0-8.964 5.601-17.093 14.263-20.706l13.641-5.68a7.5 7.5 0 004.041-9.807 7.498 7.498 0 00-9.807-4.041l-13.646 5.682c-14.271 5.953-23.492 19.516-23.492 34.552v141.221h-31.337c10.435-32.976 9.547-67.391-2.631-107.334-1.85-6.049-5.53-11.23-10.645-14.983a29.27 29.27 0 00-17.428-5.703c-8.138 0-15.705 3.25-21.309 9.151-5.601 5.9-8.453 13.624-8.031 21.748 2.345 45.097-18.457 60.619-47.248 82.104-9.479 7.073-19.839 14.809-30.021 24.296v-9.83c0-4.143-3.357-7.5-7.5-7.5H7.5a7.499 7.499 0 00-7.5 7.5v212.71c0 4.143 3.357 7.5 7.5 7.5h72.4c4.143 0 7.5-3.357 7.5-7.5v-18.868c14.245 1.355 24.649 4.194 34.757 11.941 6.636 5.086 14.816 7.887 23.033 7.887h132.271a39.937 39.937 0 0017.468 4.03h133.34c4.143 0 7.5-3.357 7.5-7.5s-3.357-7.499-7.499-7.499zm-296.988-8.824c-14.142-10.837-29.256-13.848-43.882-15.111v-87.575c0-4.143-3.357-7.5-7.5-7.5s-7.5 3.357-7.5 7.5v114.02H15v-197.71h57.4v51.011c0 4.143 3.357 7.5 7.5 7.5s7.5-3.357 7.5-7.5V284.73c12.546-13.845 25.98-23.87 38.992-33.58 28.809-21.497 56.019-41.803 53.258-94.905a14.235 14.235 0 013.93-10.641 14.247 14.247 0 0110.43-4.479c3.103 0 6.06.967 8.553 2.797a14.065 14.065 0 015.174 7.271c12.403 40.685 12.209 74.915-.611 107.724a7.5 7.5 0 006.985 10.23h90.569c9.518 0 17.261 7.747 17.261 17.27 0 4.605-1.797 8.942-5.048 12.201-3.27 3.262-7.606 5.059-12.213 5.059h-30.81c-4.143 0-7.5 3.357-7.5 7.5s3.357 7.5 7.5 7.5h22.42c9.517 0 17.26 7.747 17.26 17.271 0 4.613-1.794 8.948-5.054 12.207a17.144 17.144 0 01-12.206 5.053h-22.42c-4.143 0-7.5 3.357-7.5 7.5s3.357 7.5 7.5 7.5h14.189c9.518 0 17.261 7.743 17.261 17.26 0 4.612-1.795 8.948-5.053 12.207a17.155 17.155 0 01-12.208 5.063h-22.42c-4.143 0-7.5 3.357-7.5 7.5s3.357 7.5 7.5 7.5h12.38c9.518 0 17.261 7.743 17.261 17.26 0 4.612-1.797 8.952-5.047 12.21-3.046 3.039-7.858 4.978-11.459 5.042-.249.004-133.584.018-133.584.018-4.936-.005-9.876-1.707-13.908-4.798z" data-original="#000000"/><path d="M411.092 116.255c0-15.76-12.822-28.582-28.582-28.582s-28.582 12.822-28.582 28.582 12.822 28.582 28.582 28.582 28.582-12.822 28.582-28.582zm-42.164 0c0-7.489 6.093-13.582 13.582-13.582s13.582 6.093 13.582 13.582-6.093 13.582-13.582 13.582-13.582-6.092-13.582-13.582zm18.268 255.91h-13.451c-7.085 0-12.849-5.765-12.849-12.85 0-4.143-3.357-7.5-7.5-7.5s-7.5 3.357-7.5 7.5c0 15.097 12.076 27.417 27.074 27.83v16.598c0 4.143 3.357 7.5 7.5 7.5s7.5-3.357 7.5-7.5v-16.598c14.999-.413 27.075-12.733 27.075-27.83v-10.383a22.112 22.112 0 00-15.317-21.082l-33.88-11.005a7.149 7.149 0 01-4.952-6.815v-14.867c0-5.754 4.681-10.436 10.435-10.436h18.28c5.754 0 10.435 4.682 10.435 10.436 0 4.143 3.357 7.5 7.5 7.5s7.5-3.357 7.5-7.5c0-14.025-11.41-25.436-25.435-25.436h-1.641v-16.578c0-4.143-3.357-7.5-7.5-7.5s-7.5 3.357-7.5 7.5v16.578h-1.64c-14.024 0-25.435 11.41-25.435 25.436v14.867a22.11 22.11 0 0015.317 21.081l33.879 11.005a7.15 7.15 0 014.953 6.816v10.383c.002 7.085-5.763 12.85-12.848 12.85z" data-original="#000000"/></g></svg>