<svg xmlns="http://www.w3.org/2000/svg" width="512" height="512"><g xmlns="http://www.w3.org/2000/svg" fill="#2d313a"><path d="M401.179 60.055C362.368 21.316 310.828 0 256.002 0h-.399C200.82.104 149.251 21.691 110.396 60.787c-38.864 39.104-60.138 90.82-59.904 145.618.006 1.396.025 2.789.059 4.177 1.018 42.013 16.253 83.888 42.898 117.91l20.477 26.147a7.517 7.517 0 0011.836-9.269l-20.477-26.147C80.621 287.731 66.52 249.019 65.58 210.216c-.031-1.288-.05-2.578-.055-3.874-.217-50.778 19.505-98.707 55.533-134.958 36.02-36.243 83.812-56.255 134.573-56.351H256c50.813 0 98.589 19.759 134.559 55.661 36.059 35.991 55.917 83.87 55.917 134.816 0 1.28-.012 2.556-.038 3.833-.771 39.135-14.882 78.162-39.733 109.894L274.617 487.9c-4.513 5.762-11.298 9.067-18.617 9.067-7.318 0-14.104-3.305-18.616-9.067l-89.991-114.91a7.514 7.514 0 00-10.552-1.283 7.517 7.517 0 00-1.284 10.552l89.991 114.91C232.929 506.594 244.029 512 256 512c11.972 0 23.071-5.406 30.452-14.832l132.089-168.664c26.847-34.28 42.092-76.494 42.928-118.865.027-1.374.041-2.75.041-4.13 0-54.966-21.426-106.623-60.331-145.454z" data-original="#000000"/><path d="M389.805 239.976a7.517 7.517 0 009.032-5.606 147.488 147.488 0 003.856-33.553c0-80.887-65.807-146.693-146.693-146.693-80.887 0-146.693 65.807-146.693 146.693S175.113 347.51 256 347.51c54.652 0 104.426-30.069 129.896-78.472a7.514 7.514 0 00-3.151-10.151 7.513 7.513 0 00-10.151 3.151c-22.864 43.448-67.54 70.439-116.593 70.439-72.598 0-131.66-59.062-131.66-131.66s59.062-131.66 131.66-131.66 131.66 59.063 131.66 131.66c0 10.179-1.165 20.315-3.461 30.128a7.516 7.516 0 005.605 9.031z" data-original="#000000"/><path d="M333.056 137.633c-5.887-5.436-13.541-8.252-21.545-7.934-8.007.319-15.41 3.738-20.845 9.625l-55.152 59.736-15.372-14.857c-11.895-11.493-30.923-11.171-42.418.723-11.494 11.893-11.17 30.921.723 42.417l37.44 36.185c12.059 11.655 31.367 11.261 42.888-1.219l75.972-82.285c5.437-5.887 8.255-13.539 7.935-21.545-.322-8.008-3.739-15.41-9.626-20.846zm-9.356 32.192l-75.973 82.286a15.037 15.037 0 01-10.56 4.806 14.884 14.884 0 01-10.834-4.199l-37.439-36.185c-5.933-5.735-6.095-15.228-.361-21.161a14.924 14.924 0 0110.763-4.558c3.747 0 7.498 1.395 10.398 4.197l20.901 20.201a7.448 7.448 0 005.438 2.109 7.517 7.517 0 005.309-2.415l60.37-65.386c7.051-7.637 20.513-5.379 24.694 4.107 2.315 5.281 1.205 11.962-2.706 16.198z" data-original="#000000"/></g></svg>