<svg xmlns="http://www.w3.org/2000/svg" width="512" height="512" viewBox="0 0 480 480.04"><path xmlns="http://www.w3.org/2000/svg" d="M232.02 32h16v16h-16zM87.285 98.574l11.313-11.312 11.316 11.312-11.316 11.317zM32.02 232h16v16h-16zm55.261 149.43l11.313-11.317 11.316 11.317-11.316 11.312zm282.852-.004l11.312-11.317 11.317 11.317-11.317 11.312zM432.02 232h16v16h-16zM370.129 98.57l11.312-11.312 11.317 11.312-11.317 11.317zm0 0" fill="#2d313a" data-original="#000000"/><path xmlns="http://www.w3.org/2000/svg" d="M480.02 296V184h-48a197.592 197.592 0 00-16.665-40.113l33.97-33.965-79.2-79.203-33.969 33.968A197.463 197.463 0 00296.02 48V0h-112v48a197.592 197.592 0 00-40.114 16.664l-33.965-33.977-79.203 79.2 33.969 33.968A197.62 197.62 0 0048.02 184h-48v112h48a197.592 197.592 0 0016.664 40.113l-33.977 33.965 79.2 79.203 33.968-33.969a197.493 197.493 0 0040.145 16.598V448h16.8c3.785 18.645 20.176 32.04 39.2 32.04 19.023 0 35.414-13.395 39.199-32.04h16.8v-16.09a197.659 197.659 0 0040.114-16.566l33.969 33.969 79.199-79.2-33.969-33.968A197.4 197.4 0 00432.02 296zm-240 168a24.047 24.047 0 01-22.633-16h45.265a24.047 24.047 0 01-22.632 16zm40-32h-80v-32h80zm-79.84-78.742c-48-16.977-80.11-62.344-80.16-113.258A120 120 0 01245.7 120.137c61.75 3.246 111.054 52.644 114.19 114.398 2.63 52.926-29.913 101.258-79.94 118.73a23.937 23.937 0 00-15.93 22.505V384h-16v-96h8c30.914-.035 55.964-25.086 56-56v-24h-24a56.002 56.002 0 00-48 27.305 55.997 55.997 0 00-48-27.305h-24v24c.035 30.914 25.085 55.965 56 56h8v96h-16v-8.23a23.847 23.847 0 00-15.84-22.512zM248.02 264c.027-22.082 17.921-39.973 40-40h8v8c-.028 22.082-17.918 39.973-40 40h-8zm-16 8h-8c-22.079-.027-39.973-17.918-40-40v-8h8c22.082.027 39.972 17.918 40 40zm186.175 13.992a182.257 182.257 0 01-19.687 47.36l-3.2 5.343 31.383 31.383-56.59 56.61-31.386-31.383-5.344 3.199a181.677 181.677 0 01-37.351 16.695V384h-16v-8.23a7.914 7.914 0 015.257-7.457c56.688-19.793 93.567-74.56 90.598-134.528-3.59-69.976-59.469-125.922-129.438-129.601-67.484-3.286-127.152 43.468-140.097 109.78-12.945 66.313 24.754 132.075 88.52 154.411a7.828 7.828 0 015.16 7.426V384h-16v31.2a181.762 181.762 0 01-37.352-16.72l-5.344-3.199-31.383 31.406-56.609-56.609 31.383-31.383-3.2-5.343a182.257 182.257 0 01-19.687-47.36L60.293 280H16.02v-80h44.273l1.55-5.992a182.201 182.201 0 0119.688-47.36l3.2-5.343-31.399-31.383 56.61-56.61 31.382 31.383 5.344-3.199a182.067 182.067 0 0147.36-19.687l5.992-1.536V16h80v44.273l5.992 1.551a182.067 182.067 0 0147.36 19.688l5.343 3.199 31.387-31.399 56.605 56.61-31.383 31.383 3.2 5.343a181.932 181.932 0 0119.687 47.36l1.555 5.992h44.254v80h-44.27zm0 0" fill="#2d313a" data-original="#000000"/><path xmlns="http://www.w3.org/2000/svg" d="M208.02 408h16v16h-16zm24 0h16v16h-16zm24 0h16v16h-16zm0 0" fill="#2d313a" data-original="#000000"/></svg>