<svg xmlns="http://www.w3.org/2000/svg" width="512" height="512" viewBox="0 0 64 64"><g xmlns="http://www.w3.org/2000/svg" fill="#2d313a"><path d="M43 23c-.718 0-1.425.042-2.124.116A20.19 20.19 0 0041 21C41 9.972 32.028 1 21 1S1 9.972 1 21s8.972 20 20 20c.708 0 1.414-.049 2.116-.123A20.125 20.125 0 0023 43c0 11.028 8.972 20 20 20s20-8.972 20-20-8.972-20-20-20zM21 39c-9.925 0-18-8.075-18-18S11.075 3 21 3s18 8.075 18 18c0 .821-.072 1.639-.182 2.447-.722.154-1.426.355-2.117.585.191-.995.299-2.008.299-3.032 0-8.822-7.178-16-16-16S5 12.178 5 21s7.178 16 16 16c1.024 0 2.036-.108 3.032-.299-.23.691-.43 1.395-.585 2.116A18.17 18.17 0 0121 39zm3.959-4.575a13.953 13.953 0 01-13.911-3.593 2.971 2.971 0 012.358-2.5l3.693-.749c.23-.066.448-.158.659-.261L21 31.674l3.249-4.361c.231.114.471.216.729.289l3.616.73c.219.044.426.119.627.209a20.077 20.077 0 00-4.262 5.884zM16 21c-.551 0-1-.449-1-1s.449-1 1-1zm.78-4H16c-.263 0-.514.045-.757.109A4.65 4.65 0 0115 15.657 4.662 4.662 0 0119.657 11h2.687A4.662 4.662 0 0127 15.657c0 .495-.089.984-.243 1.452A2.957 2.957 0 0026 17h-2.764a8.509 8.509 0 01-3.789-.895L19.236 16H19c-.883 0-1.67.391-2.22 1zM26 19c.551 0 1 .449 1 1s-.449 1-1 1zm-2 2c0 1.654-1.346 3-3 3s-3-1.346-3-3v-2c0-.486.349-.893.809-.982 1.38.643 2.905.982 4.427.982H24zm-4.539 4.732c.488.16.999.268 1.539.268.541 0 1.052-.108 1.54-.268.056.097.116.192.181.284L21 28.326l-1.72-2.308c.064-.093.124-.188.181-.286zm11.37 1.432a4.941 4.941 0 00-1.842-.792l-3.54-.712a1.99 1.99 0 01-1.17-.917A5.008 5.008 0 0025.575 23H26c1.654 0 3-1.346 3-3 0-.64-.205-1.23-.547-1.718A6.666 6.666 0 0029 15.657 6.664 6.664 0 0022.343 9h-2.687A6.664 6.664 0 0013 15.657c0 .905.192 1.798.547 2.626A2.976 2.976 0 0013 20c0 1.654 1.346 3 3 3h.424a5.005 5.005 0 001.297 1.744c-.252.436-.648.768-1.095.897l-3.616.73a4.947 4.947 0 00-3.461 2.658A13.913 13.913 0 017 21c0-7.72 6.28-14 14-14s14 6.28 14 14c0 1.351-.201 2.68-.578 3.961a20.067 20.067 0 00-3.591 2.203zM43 61c-9.925 0-18-8.075-18-18s8.075-18 18-18 18 8.075 18 18-8.075 18-18 18z" data-original="#000000"/><path d="M57.562 27.223l1.967-.364a28.312 28.312 0 00-.479-2.118l-1.932.518c.173.645.322 1.306.444 1.964zM42 10c.866 0 1.641-.374 2.19-.964 5.708 3.041 10.178 8.204 12.331 14.297l1.886-.666c-2.337-6.614-7.21-12.21-13.426-15.473.004-.065.019-.128.019-.194 0-1.654-1.346-3-3-3s-3 1.346-3 3 1.346 3 3 3zm0-4c.551 0 1 .449 1 1s-.449 1-1 1-1-.449-1-1 .449-1 1-1zM6.438 36.777l-1.967.364c.132.709.293 1.422.479 2.118l1.932-.518a25.698 25.698 0 01-.444-1.964zM22 54c-.866 0-1.641.374-2.19.964-5.707-3.041-10.177-8.204-12.331-14.297l-1.886.666c2.337 6.614 7.21 12.21 13.426 15.473-.004.065-.019.128-.019.194 0 1.654 1.346 3 3 3s3-1.346 3-3-1.346-3-3-3zm0 4c-.551 0-1-.449-1-1s.449-1 1-1 1 .449 1 1-.449 1-1 1zm32.829-23.828c-.001 0-.001 0 0 0-.941-.941-2.241-1.343-3.567-1.105-.786.142-1.535.551-2.167 1.183L38 45.343l-3.095-3.096c-.633-.631-1.382-1.04-2.166-1.181-1.327-.24-2.626.163-3.567 1.104s-1.344 2.241-1.105 3.567c.142.786.551 1.535 1.183 2.167l5.922 5.923C35.927 54.584 36.931 55 38 55s2.073-.416 2.828-1.172l13.923-13.923c.632-.632 1.041-1.381 1.183-2.167.238-1.325-.164-2.625-1.105-3.566zm-.864 3.212c-.087.483-.39.869-.628 1.107L39.414 52.414c-.755.756-2.072.756-2.828 0l-5.923-5.923c-.238-.239-.541-.625-.628-1.108a2 2 0 01.552-1.797c.38-.381.882-.586 1.415-.586.125 0 .253.011.382.034.482.087.869.39 1.107.628L38 48.171l12.509-12.508c.239-.238.625-.541 1.108-.628a2.002 2.002 0 012.348 2.349z" data-original="#000000"/></g></svg>