<svg xmlns="http://www.w3.org/2000/svg" width="512" height="512" viewBox="0 0 128 128"><g fill="#2d313a"><path xmlns="http://www.w3.org/2000/svg" d="M112.65 4.75H30.32a1.75 1.75 0 00-1.75 1.75v15.942H15.346a1.751 1.751 0 00-1.75 1.75V121.5a1.75 1.75 0 001.75 1.75h82.338a1.75 1.75 0 001.75-1.75v-15.94h13.216a1.75 1.75 0 001.75-1.75V6.5a1.749 1.749 0 00-1.75-1.75zm-95.55 115V25.942h78.834v93.806zm93.8-17.69H99.434V24.192a1.751 1.751 0 00-1.75-1.75H32.07V8.25h78.83z" data-original="#000000"/><path xmlns="http://www.w3.org/2000/svg" d="M85.265 35.1H64a1.75 1.75 0 000 3.5h21.265a1.75 1.75 0 000-3.5zm0 18h-57.5a1.75 1.75 0 100 3.5h57.5a1.75 1.75 0 000-3.5zm0 9h-57.5a1.75 1.75 0 100 3.5h57.5a1.75 1.75 0 000-3.5zm0 9h-57.5a1.75 1.75 0 000 3.5h57.5a1.75 1.75 0 000-3.5zm0 9h-57.5a1.75 1.75 0 000 3.5h57.5a1.75 1.75 0 000-3.5zm0 9h-57.5a1.75 1.75 0 000 3.5h57.5a1.75 1.75 0 000-3.5zm0 9h-57.5a1.75 1.75 0 000 3.5h57.5a1.75 1.75 0 000-3.5zm-10.765 9H38.53a1.75 1.75 0 000 3.5H74.5a1.75 1.75 0 000-3.5z" data-original="#000000"/></g></svg>