<svg xmlns="http://www.w3.org/2000/svg" width="512" height="512" viewBox="0 0 64 64"><g xmlns="http://www.w3.org/2000/svg" fill="#2d313a"><path d="M33 47.184V45h-2v2h-2v3c0 1.654 1.346 3 3 3 .551 0 1 .448 1 1v1h-1c-.551 0-1-.448-1-1v-1h-2v1c0 1.302.839 2.402 2 2.816V59h2v-2h2v-3c0-1.654-1.346-3-3-3-.551 0-1-.448-1-1v-1h1c.551 0 1 .448 1 1v1h2v-1a2.996 2.996 0 00-2-2.816zm2.124-41.991a25.167 25.167 0 00-2.083-.172l-.082 1.999c.636.026 1.281.079 1.917.158zM31.041 7.02l-.081-1.998c-.691.028-1.393.086-2.083.172l.247 1.984c.635-.079 1.28-.132 1.917-.158z" data-original="#000000"/><path d="M42.849 50.26a10.908 10.908 0 00-1.362-3.801A18.9 18.9 0 0051 30c0-10.477-8.523-19-19-19a18.959 18.959 0 00-11 3.523v-4.71A22.795 22.795 0 0127.207 7.5l-.414-1.957A24.772 24.772 0 0021 7.554V3c0-1.103-.897-2-2-2H5c-1.103 0-2 .897-2 2v14c0 1.103.897 2 2 2h4v16a1.001 1.001 0 01-2 0v-6c0-2.206-1.794-4-4-4-1.103 0-2 .897-2 2v9.597c0 4.237 1.418 8.396 4 11.749V63h20v-2.51A10.904 10.904 0 0032 63c5.916 0 10.743-4.698 10.978-10.557 5.552-2.718 9.88-7.325 12.205-13.068l-1.854-.75c-2.033 5.021-5.734 9.094-10.48 11.635zm-2.533-5.439a11.085 11.085 0 00-2.61-2.208A24.482 24.482 0 0039.412 39h7.026a16.972 16.972 0 01-6.122 5.821zM22.884 27.22A2.995 2.995 0 0020 25c-.395 0-.77.081-1.116.22a2.994 2.994 0 00-2.402-2.172l.021-.049h7.445a25.605 25.605 0 00-.779 4.132c-.096.029-.193.052-.285.089zm-1.89-10.158a16.951 16.951 0 018.271-3.828c-1.461 1.615-3.352 4.195-4.677 7.767h-6.991c.438-.7.926-1.37 1.469-2.007a1.997 1.997 0 001.928-1.932zM48.949 29h-7.99a25.93 25.93 0 00-.905-6h7.42a16.837 16.837 0 011.475 6zM27 35.676V31h11.967a23.64 23.64 0 01-.995 6H26.974c.014-.441.026-.882.026-1.324zM40.967 31h7.998a16.998 16.998 0 01-1.462 6h-7.437c.533-1.92.827-3.925.901-6zm-2.008-2H26.816a3.005 3.005 0 00-1.647-1.763c.172-1.528.464-2.949.86-4.237h11.926a23.597 23.597 0 011.004 6zm-12.202-8c1.685-4.074 4.124-6.651 5.242-7.68 1.115 1.025 3.562 3.588 5.251 7.68zM15 21.554V19h1.515A18.841 18.841 0 0015 21.554zM26.859 39h10.396a22.45 22.45 0 01-1.348 2.73A10.927 10.927 0 0032 41c-2.007 0-3.922.544-5.6 1.542.204-1.173.361-2.354.459-3.542zm19.537-18H39.41c-1.319-3.552-3.2-6.141-4.659-7.757A17.012 17.012 0 0146.396 21zM11 3h2v2h-2zM5 17V3h4v4h6V3h4v14h-4v-1c0-1.654-1.346-3-3-3s-3 1.346-3 3v1zM3 36.597V27c1.103 0 2 .897 2 2v6c0 1.654 1.346 3 3 3s3-1.346 3-3V16a1.001 1.001 0 012 0v20h2V26a1.001 1.001 0 012 0v10h2v-8a1.001 1.001 0 012 0v8h2v-6a1.001 1.001 0 012 0v5.676c0 3.85-.589 7.655-1.736 11.324H6.506A17.306 17.306 0 013 36.597zM7 61V49h16v12zm25 0c-2.752 0-5.281-1.228-7-3.362v-9.477c.286-.871.536-1.751.762-2.636A8.925 8.925 0 0132 43c4.962 0 9 4.037 9 9s-4.038 9-9 9z" data-original="#000000"/><path d="M54.006 36.708l1.913.584c.208-.685.389-1.386.538-2.085l-1.957-.414a22.696 22.696 0 01-.494 1.915zm.816-3.831l1.984.246c.086-.69.144-1.392.172-2.082l-1.998-.082a22.95 22.95 0 01-.158 1.918zM59 9c0-2.206-1.794-4-4-4s-4 1.794-4 4 1.794 4 4 4 4-1.794 4-4zm-6 0c0-1.103.897-2 2-2s2 .897 2 2-.897 2-2 2-2-.897-2-2z" data-original="#000000"/><path d="M63 9c0-4.411-3.589-8-8-8s-8 3.589-8 8c0 .339.032.699.084 1.071a24.85 24.85 0 00-9.876-4.528L36.792 7.5a22.916 22.916 0 0111.274 6.048c1.39 3.516 3.845 7.198 5.595 8.719a22.904 22.904 0 011.319 6.774l1.998-.082a24.91 24.91 0 00-1.099-6.326C58.376 20.912 63 13.408 63 9zM49 9c0-3.309 2.691-6 6-6s6 2.691 6 6c0 4.022-4.501 10.494-6 11.845-1.499-1.351-6-7.823-6-11.845z" data-original="#000000"/></g></svg>