<svg xmlns="http://www.w3.org/2000/svg" width="512" height="512" viewBox="0 0 490 490"><g fill="#2d313a" xmlns="http://www.w3.org/2000/svg"><path d="M276 185.6c-8.8-4.9-18.1-8.5-27.3-12.3-5.3-2.2-10.5-4.8-15-8.4-8.9-7.1-7.2-18.6 3.2-23.2 2.9-1.3 6-1.7 9.2-1.9 12.1-.7 23.5 1.5 34.5 6.8 5.4 2.6 7.2 1.8 9.1-3.9 1.9-6 3.6-12.1 5.3-18.1 1.2-4.1-.3-6.7-4.1-8.4-7-3.1-14.2-5.3-21.7-6.5-9.9-1.5-9.9-1.6-9.9-11.5-.1-14-.1-14-14.1-14-2 0-4.1-.1-6.1 0-6.5.2-7.7 1.3-7.8 7.9-.1 3 0 5.9 0 8.9 0 8.8-.1 8.6-8.5 11.7-20.3 7.4-32.8 21.2-34.2 43.3-1.2 19.6 9 32.8 25.1 42.4 9.9 5.9 20.9 9.5 31.4 14.1 4.1 1.8 8 3.9 11.4 6.7 10.1 8.3 8.2 22.2-3.7 27.4-6.4 2.8-13.2 3.5-20.1 2.6-10.7-1.3-21-4.2-30.7-9.2-5.7-2.9-7.3-2.2-9.2 4-1.7 5.3-3.1 10.7-4.6 16-2 7.2-1.3 8.9 5.6 12.2 8.7 4.2 18.1 6.4 27.6 7.9 7.5 1.2 7.7 1.5 7.8 9.3 0 3.5.1 7 .1 10.5.1 4.4 2.2 7 6.7 7.1 5.2.1 10.4.1 15.5 0 4.2-.1 6.4-2.4 6.4-6.7 0-4.8.2-9.6 0-14.4-.2-4.9 1.9-7.4 6.6-8.7 10.8-3 20.1-8.8 27.2-17.4 19.8-23.7 12.2-58.8-15.7-74.2z" data-original="#000000"/><path d="M438.5 193.5C438.5 86.6 351.9 0 245 0S51.5 86.6 51.5 193.5c0 12.6 1.2 24.8 3.5 36.7 0 0 .3 2.1 1.3 6 3 13.4 7.4 26.2 13.1 38.4C89.5 322.4 136.8 403.1 245 490c108.2-86.9 155.5-167.6 175.7-215.3 5.6-12.2 10-25 13.1-38.4.9-3.9 1.3-6 1.3-6 2.2-11.9 3.4-24.2 3.4-36.8zM245 337.3c-78.2 0-141.6-63.4-141.6-141.6S166.8 54.2 245 54.2s141.6 63.4 141.6 141.6S323.2 337.3 245 337.3z" data-original="#000000"/></g></svg>