<svg xmlns="http://www.w3.org/2000/svg" width="512" height="512" viewBox="0 0 510 510"><g xmlns="http://www.w3.org/2000/svg" fill="#2d313a"><path d="M510 90V0h-90v30H90V0H0v90h30v330H0v90h90v-30h330v30h90v-90h-30V90zm-60-60h30v30h-30zM30 30h30v30H30zm30 450H30v-30h30zm420 0h-30v-30h30zm-30-60h-30v30H90v-30H60V90h30V60h330v30h30z" data-original="#000000"/><path d="M127.69 233.834l106.05-106.05 21.21 21.21-106.05 106.05zm127.252 127.279l106.05-106.05 21.21 21.21-106.05 106.05zM159.5 329.287l169.68-169.68 21.21 21.21-169.68 169.68z" data-original="#000000"/></g></svg>