<svg xmlns="http://www.w3.org/2000/svg" width="512" height="512"><g xmlns="http://www.w3.org/2000/svg" fill="#2d313a"><path d="M496.939 452.734h-7.662V59.066C496.472 57.937 502 51.713 502 44.206V22.088c0-8.304-6.756-15.061-15.061-15.061h-363.44a7.5 7.5 0 000 15L487 22.088l-.061 22.179L25 44.206l.061-22.179h68.438a7.5 7.5 0 000-15H25.061C16.756 7.027 10 13.784 10 22.088v22.118c0 7.507 5.528 13.731 12.723 14.86v393.668h-7.662C6.756 452.734 0 459.49 0 467.794v27.673c0 5.241 4.264 9.505 9.505 9.505h492.99c5.241 0 9.505-4.264 9.505-9.505v-27.673c0-8.304-6.756-15.06-15.061-15.06zM37.723 59.266h436.554v393.467h-23.031V114.322c0-12.407-10.093-22.5-22.5-22.5H83.253c-12.407 0-22.5 10.093-22.5 22.5v166.466a7.5 7.5 0 0015 0V180.243h360.493v272.49h-45.16v-92.7c0-12.407-10.093-22.5-22.5-22.5H327.29v-92.742c0-12.407-10.093-22.5-22.5-22.5h-97.58c-12.407 0-22.5 10.093-22.5 22.5v92.699h-41.296c-12.407 0-22.5 10.093-22.5 22.5v92.743h-45.16V310.788a7.5 7.5 0 00-15 0v141.945H37.723zm38.03 84.267h107.889a7.5 7.5 0 000-15H75.753v-14.21c0-4.135 3.364-7.5 7.5-7.5h345.493c4.135 0 7.5 3.365 7.5 7.5v14.21h-64.972a7.5 7.5 0 000 15h64.972v21.71H75.753zm193.415 93.759v12.648c0 4.136-3.364 7.5-7.5 7.5h-11.336c-4.136 0-7.5-3.364-7.5-7.5v-12.648zm-18.836 35.148h11.336c12.407 0 22.5-10.093 22.5-22.5v-12.648h20.622c4.135 0 7.5 3.365 7.5 7.5v92.699H199.71v-92.699c0-4.135 3.364-7.5 7.5-7.5h20.622v12.648c0 12.407 10.093 22.5 22.5 22.5zm118.254 80.094c4.136 0 7.5 3.364 7.5 7.5v92.7h-112.58v-100.2h29.525v12.649c0 12.407 10.093 22.5 22.5 22.5h11.337c12.407 0 22.5-10.093 22.5-22.5v-12.649zm-34.218 12.649c0 4.136-3.364 7.5-7.5 7.5h-11.337c-4.136 0-7.5-3.364-7.5-7.5v-12.649h26.337zM192.21 352.491h18.73v12.692c0 4.136-3.364 7.5-7.5 7.5h-11.336c-4.136 0-7.5-3.364-7.5-7.5v-12.692zm-.105 35.192h11.336c12.407 0 22.5-10.093 22.5-22.5v-12.692h22.553v100.2h-112.58v-92.7c0-4.136 3.365-7.5 7.5-7.5h26.191v12.692c0 12.407 10.093 22.5 22.5 22.5zM497 489.973H15.012l.048-22.239 481.94.06z" data-original="#000000"/><path d="M333.699 128.533H219.272a7.5 7.5 0 000 15H333.7a7.5 7.5 0 10-.001-15z" data-original="#000000"/></g></svg>