<?xml version="1.0"?>
<svg xmlns="http://www.w3.org/2000/svg" xmlns:xlink="http://www.w3.org/1999/xlink" xmlns:svgjs="http://svgjs.com/svgjs" version="1.1" width="512" height="512" x="0" y="0" viewBox="0 0 512 512" style="enable-background:new 0 0 512 512" xml:space="preserve" class=""><g>
<g xmlns="http://www.w3.org/2000/svg">
	<g>
		<path d="M501.968,246.166c-0.002,0-0.003,0-0.005,0c-5.52,0-9.996,4.473-9.999,9.994c-0.032,62.982-24.576,122.195-69.113,166.731    c-44.568,44.568-103.824,69.113-166.853,69.113S133.715,467.458,89.146,422.89c-44.568-44.567-69.113-103.825-69.113-166.853    c0-63.029,24.544-122.285,69.113-166.853c71.522-71.523,180.494-89.558,271.162-44.88c4.95,2.44,10.947,0.403,13.388-4.549    c2.441-4.953,0.404-10.947-4.549-13.388C270.793-22.098,152.588-2.535,75.007,75.044C26.662,123.389,0.037,187.666,0.037,256.037    c0,68.37,26.625,132.648,74.969,180.994C123.352,485.376,187.63,512,256,512s132.648-26.625,180.993-74.969    c48.309-48.31,74.934-112.542,74.969-180.861C511.964,250.647,507.491,246.169,501.968,246.166z" fill="#2d313a" data-original="#000000" style=""/>
	</g>
</g>
<g xmlns="http://www.w3.org/2000/svg">
	<g>
		<path d="M403.512,46.808l-0.261-0.183c-4.522-3.167-10.758-2.067-13.925,2.458c-3.165,4.523-2.064,10.757,2.46,13.924l0.233,0.165    c1.749,1.228,3.753,1.818,5.738,1.818c3.147,0,6.244-1.482,8.191-4.252C409.122,56.218,408.032,49.983,403.512,46.808z" fill="#2d313a" data-original="#000000" style=""/>
	</g>
</g>
<g xmlns="http://www.w3.org/2000/svg">
	<g>
		<path d="M451.795,245.966c-5.521,0-9.999,4.476-9.999,9.999l-0.001,0.612c-0.025,5.521,4.431,10.018,9.954,10.042    c0.016,0,0.03,0.001,0.046,0.001c5.501,0,9.974-4.447,9.998-9.955l0.001-0.701C461.794,250.442,457.317,245.966,451.795,245.966z" fill="#2d313a" data-original="#000000" style=""/>
	</g>
</g>
<g xmlns="http://www.w3.org/2000/svg">
	<g>
		<path d="M449.651,286.745c-5.401-1.141-10.705,2.321-11.843,7.725c-17.984,85.448-94.52,147.468-181.983,147.468    c-102.546,0-185.973-83.427-185.973-185.973c0-66.412,34.994-126.743,90.972-159.937c-0.65,4.197,1.442,8.509,5.452,10.49    c1.425,0.704,2.936,1.038,4.422,1.038c3.684,0,7.228-2.045,8.972-5.571l11.076-22.414c2.447-4.95,0.417-10.946-4.533-13.393    l-22.415-11.077c-4.952-2.447-10.946-0.416-13.394,4.534c-2.447,4.95-0.417,10.946,4.533,13.393l3.168,1.565    c-66.356,35.699-108.25,104.896-108.25,181.37c0,113.572,92.397,205.97,205.97,205.97c47.535,0,93.914-16.58,130.593-46.685    c36.175-29.692,61.375-71.123,70.959-116.661C458.513,293.185,455.055,287.882,449.651,286.745z" fill="#2d313a" data-original="#000000" style=""/>
	</g>
</g>
<g xmlns="http://www.w3.org/2000/svg">
	<g>
		<path d="M255.999,224.042c-14.15,0-26.177,9.238-30.387,21.997h-82.597c-5.521,0-9.999,4.476-9.999,9.999    c0,5.521,4.477,9.999,9.999,9.999h82.597c3.171,9.611,10.777,17.217,20.388,20.388v109.164c0,5.521,4.477,9.999,9.998,9.999    c5.521,0,9.999-4.477,9.999-9.999V286.424c12.759-4.209,21.997-16.237,21.997-30.387    C287.994,238.395,273.641,224.042,255.999,224.042z M255.999,268.036c-6.616,0-11.998-5.382-11.998-11.998    s5.382-11.998,11.998-11.998c6.616,0,11.998,5.382,11.998,11.998S262.615,268.036,255.999,268.036z" fill="#2d313a" data-original="#000000" style=""/>
	</g>
</g>
<g xmlns="http://www.w3.org/2000/svg">
	<g>
		<path d="M302.001,186.862h-19.487C296.408,172.914,312,152.742,312,132.446c0-19.79-13.297-33.087-33.087-33.087    c-18.244,0-33.087,14.843-33.087,33.087c0,5.522,4.477,9.999,9.999,9.999c5.521,0,9.999-4.476,9.999-9.999    c0-7.218,5.872-13.09,13.09-13.09c13.09,0,13.09,9.853,13.09,13.09c-0.001,20.765-30.396,47.726-42.102,56.359    c-3.48,2.56-4.924,7.066-3.577,11.172c1.348,4.105,5.18,6.882,9.501,6.882h46.177c5.521,0,9.999-4.476,9.999-9.999    C312,191.338,307.522,186.862,302.001,186.862z" fill="#2d313a" data-original="#000000" style=""/>
	</g>
</g>
<g xmlns="http://www.w3.org/2000/svg">
	<g>
		<path d="M405.834,143.147h-1.554v-33.791c0-5.522-4.477-9.999-9.999-9.999s-9.999,4.476-9.999,9.999v33.791h-26.952v-33.791    c0-5.522-4.477-9.999-9.999-9.999c-5.521,0-9.999,4.476-9.999,9.999v43.79c0,5.522,4.477,9.999,9.999,9.999h36.951v33.888    c0,5.522,4.477,9.999,9.999,9.999s9.999-4.476,9.999-9.999v-33.888h1.554c5.521,0,9.999-4.476,9.999-9.999    C415.833,147.623,411.355,143.147,405.834,143.147z" fill="#2d313a" data-original="#000000" style=""/>
	</g>
</g>
<g xmlns="http://www.w3.org/2000/svg">
	<g>
		<path d="M476.378,143.4c-4.143,0-8.1,0.807-11.731,2.258v-36.302c0-5.522-4.477-9.999-9.999-9.999s-9.999,4.476-9.999,9.999    v87.503c0,5.522,4.477,9.999,9.999,9.999s9.999-4.476,9.999-9.999v-12.223v-9.508c0-6.469,5.263-11.731,11.731-11.731    c6.47,0,11.732,5.263,11.732,11.731v21.731c0,5.522,4.477,9.999,9.999,9.999s9.999-4.476,9.999-9.999v-21.731    C508.107,157.633,493.873,143.4,476.378,143.4z" fill="#2d313a" data-original="#000000" style=""/>
	</g>
</g>
<g xmlns="http://www.w3.org/2000/svg">
</g>
<g xmlns="http://www.w3.org/2000/svg">
</g>
<g xmlns="http://www.w3.org/2000/svg">
</g>
<g xmlns="http://www.w3.org/2000/svg">
</g>
<g xmlns="http://www.w3.org/2000/svg">
</g>
<g xmlns="http://www.w3.org/2000/svg">
</g>
<g xmlns="http://www.w3.org/2000/svg">
</g>
<g xmlns="http://www.w3.org/2000/svg">
</g>
<g xmlns="http://www.w3.org/2000/svg">
</g>
<g xmlns="http://www.w3.org/2000/svg">
</g>
<g xmlns="http://www.w3.org/2000/svg">
</g>
<g xmlns="http://www.w3.org/2000/svg">
</g>
<g xmlns="http://www.w3.org/2000/svg">
</g>
<g xmlns="http://www.w3.org/2000/svg">
</g>
<g xmlns="http://www.w3.org/2000/svg">
</g>
</g></svg>
