<svg id="Capa_1" enable-background="new 0 0 512 512" height="512" viewBox="0 0 512 512" width="512" xmlns="http://www.w3.org/2000/svg"><g><path d="m461.689 246.12c27.741 0 50.31-22.564 50.31-50.3v-145.51c0-27.741-22.569-50.31-50.31-50.31h-11.03c-4.142 0-7.5 3.358-7.5 7.5s3.358 7.5 7.5 7.5h11.03c19.47 0 35.31 15.84 35.31 35.31v145.51c0 19.465-15.84 35.3-35.31 35.3h-112.34v-13.512c.13.002.259.014.389.014h10.75c12.335 0 22.37-10.035 22.37-22.37v-24.364c5.874-.026 11.416-.046 15.1-.046 39.712 0 72.02-31.927 72.02-71.169 0-39.243-32.308-71.17-72.02-71.17h-42.55c-4.438 0-8.575.916-12.285 2.718-9.761 4.719-15.797 14.345-15.755 25.092v.107c.002.894.025 8.658.046 17.56-6.5-3.788-14.046-5.97-22.096-5.97h-24.44v-17.7c0-19.47 15.835-35.31 35.3-35.31h104.48c4.142 0 7.5-3.358 7.5-7.5s-3.358-7.5-7.5-7.5h-104.48c-27.736 0-50.3 22.569-50.3 50.31v17.7h-216.519c-24.278 0-44.03 19.752-44.03 44.03v319.142c0 .058-.004.115-.004.173 0 15.521 12.628 28.149 28.149 28.149h5.573v18.626c0 6.989 2.145 13.485 5.809 18.869h-37.355c-4.142 0-7.5 3.358-7.5 7.5s3.358 7.5 7.5 7.5h496.997c4.142 0 7.5-3.358 7.5-7.5s-3.358-7.5-7.5-7.5h-108.061v-250.879zm-112.024-201.4c1.639-.796 3.625-1.217 5.744-1.217h42.55c31.441 0 57.02 25.198 57.02 56.17s-25.579 56.169-57.02 56.169c-5.248 0-14.252.04-22.635.08-4.128.02-7.464 3.372-7.464 7.5v31.83c0 4.064-3.306 7.37-7.37 7.37h-10.75c-.132 0-.259-.02-.389-.026v-90.556c0-8.69-2.541-16.793-6.904-23.625-.022-13.036-.072-30.666-.077-32.132-.021-4.947 2.77-9.376 7.295-11.563zm-300.306 38.29h255.96c16.007 0 29.03 13.023 29.03 29.03v294.438c-3.486-1.85-7.402-2.991-11.559-3.224v-184.293c0-28.057-22.826-50.883-50.882-50.883h-189.144c-28.057 0-50.883 22.826-50.883 50.883v184.293c-4.154.233-8.068 1.372-11.552 3.22v-294.434c0-16.007 13.023-29.03 29.03-29.03zm258.431 320.196h-260.909v-184.245c0-19.786 16.097-35.883 35.883-35.883h189.144c19.786 0 35.882 16.097 35.882 35.883zm-287.465 28.154h.004v-.092c.047-7.21 5.924-13.063 13.145-13.063h287.723c7.25 0 13.149 5.899 13.149 13.149s-5.898 13.149-13.149 13.149h-287.723c-7.248.001-13.146-5.895-13.149-13.143zm277.565 46.771c0 10.271-8.356 18.626-18.626 18.626s-18.626-8.356-18.626-18.626v-18.626h37.253v18.626zm-206.589-18.627v18.626c0 10.271-8.356 18.626-18.626 18.626s-18.626-8.356-18.626-18.626v-18.626zm15 18.627v-18.626h139.336v18.626c0 6.989 2.145 13.485 5.809 18.869h-150.954c3.664-5.384 5.809-11.88 5.809-18.869zm275.136 18.869h-74.355c3.664-5.384 5.809-11.88 5.809-18.869v-18.626h8.308c15.52 0 28.146-12.625 28.149-28.144h.003v-185.241h32.087v250.88z"/><path d="m368.05 122.966c.01 1.989.81 3.893 2.223 5.292 1.405 1.391 3.301 2.17 5.277 2.17h.038c8.296-.042 17.158-.079 22.372-.079 17.089 0 31.526-14.048 31.526-30.676s-14.437-30.676-31.526-30.676h-22.538c-1.993 0-3.903.793-5.311 2.204s-2.195 3.324-2.189 5.316c.025 9.004.085 37.815.128 46.449zm29.91-38.967c8.804 0 16.526 7.325 16.526 15.676s-7.722 15.676-16.526 15.676c-3.668 0-9.135.018-14.945.044-.027-6.125-.058-24.959-.073-31.395h15.018z"/><path d="m296.509 296.38v-77.42c0-13.564-11.035-24.6-24.6-24.6h-189.15c-13.564 0-24.6 11.035-24.6 24.6v77.42c0 16.404 13.35 29.75 29.76 29.75h11.6c4.142 0 7.5-3.358 7.5-7.5s-3.358-7.5-7.5-7.5h-11.6c-8.139 0-14.76-6.617-14.76-14.75v-77.42c0-5.293 4.306-9.6 9.6-9.6h189.15c5.293 0 9.6 4.306 9.6 9.6v77.42c0 5.745-3.31 10.72-8.118 13.154-4.278-22.629-24.185-39.801-48.039-39.801-24.412 0-44.703 17.982-48.324 41.396h-47.508c-4.142 0-7.5 3.358-7.5 7.5s3.358 7.5 7.5 7.5h137.23c16.409.001 29.759-13.345 29.759-29.749zm-71.157-11.647c16.114 0 29.629 11.304 33.054 26.396h-66.107c3.425-15.091 16.939-26.396 33.053-26.396z"/><path d="m87.245 335.024c-16.666 0-30.224 13.558-30.224 30.224s13.559 30.224 30.224 30.224 30.224-13.558 30.224-30.224-13.559-30.224-30.224-30.224zm0 45.447c-8.395 0-15.224-6.829-15.224-15.224 0-8.394 6.83-15.224 15.224-15.224s15.224 6.829 15.224 15.224-6.83 15.224-15.224 15.224z"/><path d="m267.427 335.024c-16.666 0-30.224 13.558-30.224 30.224s13.559 30.224 30.224 30.224 30.224-13.558 30.224-30.224-13.558-30.224-30.224-30.224zm0 45.447c-8.395 0-15.224-6.829-15.224-15.224 0-8.394 6.83-15.224 15.224-15.224s15.224 6.829 15.224 15.224-6.829 15.224-15.224 15.224z"/><path d="m139.742 343.763c-4.142 0-7.5 3.358-7.5 7.5v31.464c0 4.142 3.358 7.5 7.5 7.5s7.5-3.358 7.5-7.5v-31.464c0-4.142-3.357-7.5-7.5-7.5z"/><path d="m164.805 343.763c-4.142 0-7.5 3.358-7.5 7.5v31.464c0 4.142 3.358 7.5 7.5 7.5s7.5-3.358 7.5-7.5v-31.464c0-4.142-3.358-7.5-7.5-7.5z"/><path d="m189.867 343.763c-4.142 0-7.5 3.358-7.5 7.5v31.464c0 4.142 3.358 7.5 7.5 7.5s7.5-3.358 7.5-7.5v-31.464c0-4.142-3.358-7.5-7.5-7.5z"/><path d="m214.929 343.763c-4.142 0-7.5 3.358-7.5 7.5v31.464c0 4.142 3.358 7.5 7.5 7.5s7.5-3.358 7.5-7.5v-31.464c0-4.142-3.357-7.5-7.5-7.5z"/></g></svg>