<?xml version="1.0"?>
<svg xmlns="http://www.w3.org/2000/svg" xmlns:xlink="http://www.w3.org/1999/xlink" xmlns:svgjs="http://svgjs.com/svgjs" version="1.1" width="512" height="512" x="0" y="0" viewBox="0 0 510 510" style="enable-background:new 0 0 512 512" xml:space="preserve" class=""><g><g xmlns="http://www.w3.org/2000/svg"><path d="m510 90v-90h-90v30h-330v-30h-90v90h30v330h-30v90h90v-30h330v30h90v-90h-30v-330zm-60-60h30v30h-30zm-420 0h30v30h-30zm30 450h-30v-30h30zm420 0h-30v-30h30zm-30-60h-30v30h-330v-30h-30v-330h30v-30h330v30h30z" fill="#2d313a" data-original="#000000" style="" class=""/><path d="m116.361 176.413h150v30h-150z" transform="matrix(.707 -.707 .707 .707 -79.301 191.377)" fill="#2d313a" data-original="#000000" style="" class=""/><path d="m243.639 303.693h150.001v30h-150.001z" transform="matrix(.707 -.707 .707 .707 -132.022 318.655)" fill="#2d313a" data-original="#000000" style="" class=""/><path d="m135 240.053h240v30h-240z" transform="matrix(.707 -.707 .707 .707 -105.662 255.015)" fill="#2d313a" data-original="#000000" style="" class=""/></g></g></svg>
